<?xml version="1.0" encoding="UTF-8"?>
<svg xmlns="http://www.w3.org/2000/svg" xmlns:xlink="http://www.w3.org/1999/xlink" width="64px" height="64px" viewBox="0 0 64 64" version="1.1">
<g id="surface1">
<path style=" stroke:none;fill-rule:nonzero;fill:rgb(55,71,79);fill-opacity:1;" d="M 26.773438 6.136719 C 26.1875 6.4375 25.789062 6.914062 25.675781 7.488281 C 25.625 7.699219 25.539062 7.925781 25.449219 7.988281 C 25.375 8.039062 24.175781 8.449219 22.773438 8.875 L 20.226562 9.664062 L 19.773438 9.210938 C 19.085938 8.5625 18.550781 8.335938 17.6875 8.335938 C 16.761719 8.335938 16.085938 8.648438 15.460938 9.375 C 14.789062 10.175781 14.625 11.0625 14.9375 12.3125 C 14.988281 12.511719 14.511719 12.960938 12.539062 14.625 C 11.199219 15.761719 9.539062 17.148438 8.875 17.710938 L 7.648438 18.75 L 7.199219 18.5625 C 6.539062 18.289062 5.8125 18.324219 5.136719 18.6875 C 3.210938 19.738281 3.386719 22.363281 5.4375 23.25 L 5.9375 23.460938 L 6.238281 25.539062 L 6.539062 27.601562 L 6.023438 28.085938 C 4.238281 29.789062 6.023438 32.761719 8.363281 31.960938 L 8.898438 31.773438 L 12.324219 34.539062 L 15.75 37.3125 L 15.75 38.074219 C 15.75 38.664062 15.8125 38.9375 16.039062 39.261719 C 16.648438 40.175781 17.675781 40.550781 18.601562 40.210938 L 19.148438 40.023438 L 20.699219 41.226562 C 22.0625 42.300781 22.238281 42.488281 22.25 42.8125 C 22.25 43.3125 22.726562 44.238281 23.136719 44.539062 C 23.601562 44.875 24.351562 45.011719 24.914062 44.863281 C 25.511719 44.699219 26.199219 44.101562 26.363281 43.585938 L 26.5 43.1875 L 28.851562 42.664062 L 31.1875 42.148438 L 31.613281 42.648438 C 32.085938 43.199219 33.101562 43.75 33.648438 43.75 C 33.949219 43.75 34.011719 43.824219 34.136719 44.273438 C 34.210938 44.574219 34.914062 47.1875 35.699219 50.101562 L 37.125 55.375 L 36.863281 55.636719 C 35.886719 56.613281 36.148438 58.324219 37.375 58.960938 C 38.3125 59.460938 39.238281 59.289062 39.960938 58.460938 C 40.414062 57.949219 40.574219 57.351562 40.4375 56.664062 C 40.363281 56.226562 40.386719 56.175781 41.324219 55.238281 C 42.210938 54.335938 42.3125 54.273438 42.613281 54.398438 C 43.4375 54.710938 44.699219 54.085938 45.074219 53.164062 C 45.550781 52.050781 44.925781 50.675781 43.800781 50.324219 C 43.574219 50.261719 43.511719 50.0625 43.351562 48.976562 L 43.164062 47.699219 L 43.5625 47.3125 C 43.789062 47.101562 44.039062 46.710938 44.113281 46.425781 L 44.25 45.925781 L 47.210938 44.976562 C 50.113281 44.039062 50.1875 44.023438 50.4375 44.238281 C 50.863281 44.625 51.261719 44.773438 51.875 44.773438 C 53.738281 44.773438 54.710938 42.585938 53.4375 41.25 L 53.136719 40.9375 L 53.523438 39.414062 L 53.914062 37.898438 L 54.375 37.761719 C 54.648438 37.6875 55.039062 37.414062 55.289062 37.136719 C 55.875 36.476562 56 35.75 55.648438 34.960938 L 55.398438 34.386719 L 56.5625 32.414062 L 57.726562 30.4375 L 58.289062 30.351562 C 58.601562 30.3125 59 30.175781 59.175781 30.039062 C 59.5625 29.761719 60 28.925781 60 28.460938 C 60 27.648438 59.289062 26.738281 58.511719 26.5625 C 58.164062 26.488281 58.113281 26.386719 57.136719 23.550781 C 56.574219 21.925781 56.125 20.550781 56.125 20.476562 C 56.125 20.398438 56.261719 20.1875 56.4375 19.976562 C 57.351562 18.886719 57 17.136719 55.738281 16.5 C 55.175781 16.199219 54.1875 16.136719 53.761719 16.375 C 53.523438 16.5 53.351562 16.386719 52.074219 15.25 L 50.664062 13.976562 L 50.773438 13.476562 C 51.175781 11.664062 49.488281 9.824219 47.601562 10.039062 C 47.273438 10.085938 46.726562 10.261719 46.398438 10.449219 L 45.800781 10.789062 L 42.835938 9.625 C 40.125 8.5625 39.875 8.4375 39.875 8.164062 C 39.875 7.375 39.074219 6.398438 38.199219 6.125 C 37.261719 5.824219 36.136719 6.238281 35.613281 7.085938 L 35.335938 7.523438 L 32.648438 7.476562 C 30.585938 7.4375 29.9375 7.386719 29.898438 7.261719 C 29.789062 6.9375 29.050781 6.210938 28.664062 6.050781 C 28.074219 5.800781 27.386719 5.835938 26.773438 6.136719 Z M 28.273438 7.585938 C 28.601562 7.886719 28.5625 8.449219 28.1875 8.699219 C 27.824219 8.9375 27.4375 8.835938 27.175781 8.449219 C 26.726562 7.75 27.648438 7.011719 28.273438 7.585938 Z M 38.101562 7.75 C 38.851562 8.449219 37.886719 9.625 37.085938 8.988281 C 36.675781 8.675781 36.636719 8.113281 37 7.75 C 37.324219 7.425781 37.75 7.4375 38.101562 7.75 Z M 35.3125 9.226562 C 35.386719 9.335938 35.699219 9.699219 36.039062 10.039062 L 36.625 10.625 L 36.625 12.625 L 36.164062 12.851562 L 35.699219 13.085938 L 32.976562 11.050781 C 31.476562 9.914062 30.25 8.988281 30.25 8.960938 C 30.25 8.949219 31.363281 8.949219 32.710938 8.976562 C 34.875 9.011719 35.199219 9.050781 35.3125 9.226562 Z M 25.914062 9.898438 C 25.773438 10.125 24.863281 11.738281 23.886719 13.460938 L 22.101562 16.625 L 21.113281 16.625 L 19.613281 13.523438 L 20.011719 12.960938 C 20.226562 12.648438 20.476562 12.101562 20.550781 11.738281 L 20.699219 11.085938 L 23.199219 10.300781 C 24.5625 9.875 25.789062 9.511719 25.914062 9.511719 C 26.136719 9.5 26.136719 9.511719 25.914062 9.898438 Z M 18.476562 10.085938 C 18.625 10.175781 18.851562 10.449219 18.960938 10.6875 C 19.398438 11.601562 18.675781 12.625 17.613281 12.625 C 16.4375 12.625 15.824219 11.0625 16.675781 10.261719 C 17.210938 9.75 17.851562 9.6875 18.476562 10.085938 Z M 42.023438 10.914062 C 43.488281 11.488281 44.800781 12 44.9375 12.050781 C 45.324219 12.1875 45.085938 12.273438 42.085938 13.074219 L 39.363281 13.789062 L 39.085938 13.476562 C 38.9375 13.300781 38.664062 13.050781 38.476562 12.9375 C 38.136719 12.726562 38.125 12.675781 38.125 11.6875 C 38.125 10.664062 38.125 10.648438 38.488281 10.5 C 38.6875 10.425781 38.949219 10.25 39.074219 10.113281 C 39.1875 9.988281 39.3125 9.875 39.324219 9.875 C 39.351562 9.875 40.574219 10.335938 42.023438 10.914062 Z M 32 12.1875 C 34.773438 14.273438 34.976562 14.476562 34.648438 14.949219 C 34.601562 15.023438 32.226562 15.726562 29.375 16.5 C 26.523438 17.273438 24.101562 17.9375 23.976562 17.960938 C 23.851562 18 23.6875 17.898438 23.574219 17.710938 C 23.375 17.414062 23.414062 17.335938 25.351562 13.925781 L 27.335938 10.4375 L 27.914062 10.351562 C 28.226562 10.3125 28.585938 10.210938 28.710938 10.136719 C 28.835938 10.0625 29 10.023438 29.085938 10.0625 C 29.175781 10.085938 30.476562 11.050781 32 12.1875 Z M 48.875 11.9375 C 49.476562 12.511719 49.460938 13.3125 48.851562 13.960938 C 48.0625 14.8125 46.5 14.125 46.5 12.9375 C 46.5 11.699219 47.976562 11.074219 48.875 11.9375 Z M 17.5 14.113281 L 18.175781 14.1875 L 18.851562 15.710938 L 19.523438 17.226562 L 19.148438 17.710938 C 18.949219 17.976562 18.710938 18.386719 18.636719 18.636719 C 18.5 19.074219 18.449219 19.101562 17.835938 19.175781 C 16.414062 19.335938 9.210938 19.886719 8.976562 19.851562 C 8.789062 19.824219 9.648438 19.023438 12.363281 16.726562 L 16.011719 13.625 L 16.414062 13.835938 C 16.636719 13.949219 17.125 14.074219 17.5 14.113281 Z M 45.4375 14.4375 C 45.613281 14.75 45.960938 15.136719 46.199219 15.289062 L 46.648438 15.5625 L 46.574219 16.875 C 46.460938 18.726562 46.363281 19.375 46.199219 19.375 C 46.113281 19.375 45.835938 19.488281 45.5625 19.625 L 45.074219 19.875 L 42.351562 17.914062 C 39.800781 16.074219 39.613281 15.925781 39.6875 15.625 C 39.738281 15.449219 39.789062 15.289062 39.824219 15.261719 C 39.898438 15.1875 44.648438 13.898438 44.898438 13.886719 C 45.011719 13.875 45.238281 14.113281 45.4375 14.4375 Z M 37.9375 14.4375 C 38.550781 15.039062 38.148438 16.125 37.3125 16.125 C 36.726562 16.125 36.511719 16.023438 36.300781 15.601562 C 35.773438 14.585938 37.136719 13.625 37.9375 14.4375 Z M 51.164062 16.4375 C 52.398438 17.550781 52.488281 17.648438 52.375 17.949219 C 52.300781 18.125 52.25 18.386719 52.25 18.539062 C 52.25 18.773438 52 18.9375 50.6875 19.539062 L 49.113281 20.25 L 48.613281 19.875 C 48.335938 19.675781 48.0625 19.5 47.988281 19.476562 C 47.925781 19.449219 47.9375 18.726562 48.023438 17.648438 L 48.164062 15.875 L 48.613281 15.75 C 48.863281 15.675781 49.199219 15.539062 49.375 15.4375 C 49.550781 15.335938 49.726562 15.261719 49.761719 15.25 C 49.800781 15.25 50.425781 15.789062 51.164062 16.4375 Z M 35.351562 16.851562 C 35.539062 17.050781 35.789062 17.261719 35.914062 17.324219 C 36.113281 17.4375 36.113281 17.550781 35.863281 19.414062 C 35.585938 21.335938 35.585938 21.375 35.261719 21.449219 C 34.449219 21.625 33.835938 21.9375 33.3125 22.449219 C 33 22.75 32.699219 23 32.664062 23 C 32.601562 23 30.023438 22.011719 24.273438 19.789062 C 24.1875 19.75 24.136719 19.664062 24.164062 19.585938 C 24.1875 19.5 33.886719 16.738281 34.976562 16.511719 C 35 16.5 35.175781 16.664062 35.351562 16.851562 Z M 41.523438 19.175781 C 42.988281 20.226562 44.175781 21.125 44.164062 21.175781 C 44.136719 21.210938 44.125 21.523438 44.125 21.851562 L 44.125 22.460938 L 41.675781 22.988281 C 40.324219 23.289062 39.1875 23.476562 39.136719 23.425781 C 39.085938 23.363281 38.886719 23.101562 38.6875 22.824219 C 38.5 22.5625 38.0625 22.175781 37.726562 21.960938 C 37.3125 21.699219 37.125 21.5 37.125 21.324219 C 37.136719 20.949219 37.585938 17.738281 37.648438 17.699219 C 37.875 17.5625 38.601562 17.261719 38.710938 17.261719 C 38.789062 17.25 40.0625 18.113281 41.523438 19.175781 Z M 55.164062 17.898438 C 55.273438 17.988281 55.398438 18.210938 55.4375 18.398438 C 55.5 18.664062 55.449219 18.8125 55.199219 19.050781 C 55.023438 19.238281 54.773438 19.375 54.625 19.375 C 54.488281 19.375 54.226562 19.238281 54.050781 19.050781 C 53.523438 18.523438 53.863281 17.75 54.625 17.75 C 54.800781 17.75 55.050781 17.824219 55.164062 17.898438 Z M 22 18.3125 C 22.460938 18.550781 22.625 18.851562 22.625 19.5 C 22.625 20.238281 22.101562 20.75 21.375 20.75 C 20.949219 20.75 20.773438 20.675781 20.425781 20.324219 C 19.835938 19.738281 19.835938 19.136719 20.425781 18.550781 C 20.898438 18.074219 21.386719 18 22 18.3125 Z M 6.886719 20.039062 C 7.886719 20.800781 7.011719 22.25 5.8125 21.800781 C 5.523438 21.6875 5.210938 21.023438 5.300781 20.675781 C 5.476562 20.011719 6.375 19.636719 6.886719 20.039062 Z M 54.023438 20.761719 L 54.664062 20.976562 L 55.699219 23.976562 C 56.460938 26.210938 56.699219 27.011719 56.585938 27.101562 C 56.488281 27.175781 55.398438 26.5625 53.1875 25.164062 C 51.398438 24.039062 49.875 23.074219 49.789062 23.023438 C 49.6875 22.960938 49.675781 22.726562 49.726562 22.261719 L 49.8125 21.585938 L 51.375 20.863281 C 52.8125 20.199219 52.949219 20.164062 53.148438 20.335938 C 53.273438 20.449219 53.664062 20.636719 54.023438 20.761719 Z M 19.050781 21.085938 L 19.425781 21.550781 L 18.625 23.074219 L 17.824219 24.601562 L 17 24.648438 C 16.261719 24.710938 15.8125 24.863281 15.238281 25.273438 C 15.0625 25.386719 14.550781 25.125 12.238281 23.6875 C 10.699219 22.738281 9.273438 21.835938 9.0625 21.699219 L 8.6875 21.4375 L 13.3125 21.050781 C 15.863281 20.835938 18.113281 20.648438 18.3125 20.636719 C 18.601562 20.625 18.773438 20.726562 19.050781 21.085938 Z M 47.5 20.9375 C 47.898438 21.148438 48.25 21.699219 48.25 22.125 C 48.25 22.585938 47.875 23.136719 47.414062 23.324219 C 46.539062 23.699219 45.625 23.0625 45.625 22.074219 C 45.636719 21.488281 45.800781 21.210938 46.324219 20.9375 C 46.789062 20.699219 47.039062 20.699219 47.5 20.9375 Z M 28.425781 23 L 32.164062 24.449219 L 32.210938 25.125 C 32.238281 25.5 32.261719 25.949219 32.289062 26.113281 C 32.3125 26.363281 32.085938 26.574219 30.976562 27.398438 L 29.636719 28.386719 L 29.164062 28.085938 C 28.460938 27.648438 27.835938 27.476562 27.050781 27.511719 L 26.335938 27.550781 L 24.875 24.488281 C 23.875 22.414062 23.449219 21.386719 23.523438 21.289062 C 23.625 21.175781 23.761719 21.1875 24.164062 21.351562 C 24.449219 21.460938 26.375 22.199219 28.425781 23 Z M 23.324219 24.710938 C 23.988281 26.074219 24.625 27.414062 24.75 27.6875 L 24.960938 28.1875 L 24.511719 28.699219 L 24.0625 29.199219 L 22.113281 28.523438 L 20.164062 27.851562 L 20.074219 27.300781 C 20 26.6875 19.726562 26.074219 19.351562 25.675781 C 19.113281 25.398438 19.113281 25.398438 19.5 24.613281 C 19.726562 24.175781 20.101562 23.460938 20.335938 23.023438 L 20.773438 22.25 L 22.136719 22.25 Z M 11.226562 24.8125 C 14.238281 26.675781 14.25 26.6875 14.175781 27.0625 C 14.125 27.261719 14.050781 27.476562 13.988281 27.511719 C 13.925781 27.550781 12.925781 27.789062 11.773438 28.050781 L 9.675781 28.511719 L 9.210938 28.074219 C 8.960938 27.835938 8.601562 27.613281 8.398438 27.5625 L 8.039062 27.488281 L 7.726562 25.335938 C 7.4375 23.375 7.425781 23.175781 7.613281 23.039062 C 7.726562 22.949219 7.898438 22.886719 8 22.914062 C 8.113281 22.925781 9.5625 23.773438 11.226562 24.8125 Z M 36.539062 23.050781 C 37.164062 23.273438 37.488281 23.574219 37.761719 24.1875 C 38.0625 24.824219 38.050781 25.300781 37.761719 25.960938 C 37.425781 26.699219 36.664062 27.175781 35.824219 27.175781 C 33.914062 27.175781 32.960938 24.914062 34.3125 23.5625 C 34.960938 22.914062 35.6875 22.75 36.539062 23.050781 Z M 44.75 23.914062 C 44.75 24.261719 42.710938 31.574219 42.601562 31.636719 C 42.199219 31.898438 41.949219 31.675781 40.335938 29.613281 L 38.648438 27.460938 L 39.011719 26.800781 C 39.199219 26.425781 39.398438 25.875 39.4375 25.574219 L 39.523438 25.011719 L 40.738281 24.75 C 41.398438 24.601562 42.5 24.351562 43.1875 24.1875 C 44.449219 23.886719 44.75 23.835938 44.75 23.914062 Z M 52.261719 26.335938 C 54.101562 27.5 55.613281 28.460938 55.613281 28.5 C 55.613281 28.539062 53.199219 29.460938 50.226562 30.550781 C 44.726562 32.585938 44.648438 32.601562 44.335938 32.113281 C 44.25 31.976562 44.488281 30.863281 45.136719 28.414062 L 46.050781 24.914062 L 46.824219 24.914062 C 47.425781 24.925781 47.738281 24.851562 48.210938 24.601562 C 48.539062 24.414062 48.835938 24.261719 48.863281 24.261719 C 48.886719 24.25 50.414062 25.1875 52.261719 26.335938 Z M 18.074219 26.539062 C 18.664062 27.074219 18.773438 27.75 18.351562 28.375 C 18.011719 28.863281 17.300781 29.199219 16.8125 29.074219 C 16.25 28.9375 15.738281 28.363281 15.664062 27.789062 C 15.476562 26.398438 17.039062 25.585938 18.074219 26.539062 Z M 34.5625 28.476562 C 35.25 28.738281 35.835938 28.773438 36.574219 28.613281 C 36.988281 28.523438 37.363281 28.449219 37.414062 28.4375 C 37.585938 28.4375 40.863281 32.6875 40.761719 32.789062 C 40.699219 32.835938 39.175781 32.601562 37.363281 32.25 C 33.898438 31.574219 30.863281 31 30.8125 31 C 30.800781 31 30.75 30.789062 30.710938 30.523438 C 30.675781 30.273438 30.613281 29.949219 30.574219 29.8125 C 30.511719 29.613281 30.75 29.386719 31.851562 28.613281 L 33.1875 27.648438 L 33.6875 27.988281 C 33.960938 28.175781 34.363281 28.398438 34.5625 28.476562 Z M 58.386719 28.199219 C 58.5 28.335938 58.511719 28.449219 58.414062 28.601562 C 58.226562 28.898438 57.863281 28.9375 57.675781 28.6875 C 57.324219 28.210938 58.011719 27.75 58.386719 28.199219 Z M 8.210938 29.175781 C 8.289062 29.25 8.398438 29.460938 8.4375 29.648438 C 8.5 29.914062 8.449219 30.0625 8.199219 30.300781 C 8.023438 30.488281 7.773438 30.625 7.625 30.625 C 7.3125 30.625 6.75 30.101562 6.75 29.8125 C 6.75 29.0625 7.6875 28.664062 8.210938 29.175781 Z M 14.851562 29.5 C 15.273438 30 16.0625 30.5 16.4375 30.5 C 16.5625 30.5 16.625 30.613281 16.625 30.835938 C 16.625 31.039062 16.710938 32.175781 16.8125 33.375 C 17.050781 36.226562 17.050781 36.164062 16.773438 36.101562 C 16.648438 36.0625 15.050781 34.8125 13.210938 33.324219 C 9.949219 30.675781 9.601562 30.3125 10.023438 30.050781 C 10.164062 29.960938 13.988281 29.039062 14.300781 29.011719 C 14.363281 29 14.613281 29.226562 14.851562 29.5 Z M 28.351562 29.335938 C 29.574219 30.238281 29.574219 31.886719 28.335938 32.800781 C 27.8125 33.1875 26.585938 33.175781 26.011719 32.761719 C 25.539062 32.425781 25.136719 31.625 25.125 31.023438 C 25.125 30.273438 25.738281 29.398438 26.5 29.085938 C 26.875 28.925781 28.011719 29.074219 28.351562 29.335938 Z M 23.414062 30.5625 C 23.5625 30.625 23.625 30.800781 23.625 31.175781 C 23.636719 31.449219 23.710938 31.886719 23.800781 32.136719 L 23.960938 32.601562 L 21.574219 34.398438 C 19.351562 36.085938 19.164062 36.199219 18.851562 36.074219 C 18.625 36 18.5 35.863281 18.5 35.699219 C 18.5 35.550781 18.414062 34.476562 18.3125 33.3125 C 18.050781 30.351562 18.050781 30.476562 18.550781 30.199219 C 18.789062 30.074219 19.125 29.8125 19.3125 29.625 L 19.648438 29.273438 L 21.414062 29.875 C 22.386719 30.199219 23.289062 30.511719 23.414062 30.5625 Z M 55.175781 31.800781 C 54.175781 33.488281 54.074219 33.625 53.738281 33.625 C 53.210938 33.625 52.539062 33.9375 52.148438 34.351562 L 51.8125 34.710938 L 49.0625 34.289062 C 47.550781 34.050781 46.226562 33.835938 46.125 33.800781 C 46.023438 33.761719 48.25 32.875 51.0625 31.824219 C 53.886719 30.773438 56.199219 29.9375 56.226562 29.949219 C 56.25 29.960938 55.773438 30.800781 55.175781 31.800781 Z M 34.9375 33.3125 C 40.824219 34.4375 40.460938 34.351562 40.539062 34.625 C 40.585938 34.8125 40.101562 35.226562 38.238281 36.636719 L 35.863281 38.414062 L 35.261719 38.125 C 34.664062 37.851562 33.699219 37.75 33.1875 37.914062 C 32.960938 37.988281 32.726562 37.710938 31.488281 35.914062 C 30.6875 34.75 30 33.75 29.949219 33.664062 C 29.875 33.511719 30.449219 32.5 30.613281 32.5 C 30.664062 32.5 32.613281 32.863281 34.9375 33.3125 Z M 43.425781 33.386719 C 43.875 33.738281 43.875 34.386719 43.425781 34.738281 C 43.238281 34.886719 43 35 42.875 35 C 42.449219 35 42 34.511719 42 34.0625 C 42 33.613281 42.449219 33.125 42.875 33.125 C 43 33.125 43.238281 33.238281 43.425781 33.386719 Z M 25.574219 34.210938 C 26.074219 34.5 26.351562 34.5625 27.0625 34.5625 C 27.550781 34.5625 28.085938 34.523438 28.261719 34.476562 C 28.574219 34.386719 28.675781 34.488281 30.125 36.585938 L 31.664062 38.789062 L 31.449219 39.1875 L 31.238281 39.574219 L 25.773438 38.664062 C 22.773438 38.164062 20.261719 37.75 20.210938 37.75 C 20.148438 37.75 20.125 37.664062 20.148438 37.550781 C 20.1875 37.335938 24.574219 33.898438 24.824219 33.886719 C 24.898438 33.875 25.238281 34.023438 25.574219 34.210938 Z M 54.238281 35.523438 C 54.414062 35.824219 54.414062 35.875 54.199219 36.113281 C 53.75 36.601562 53.125 36.375 53.125 35.726562 C 53.125 35.085938 53.914062 34.9375 54.238281 35.523438 Z M 48.675781 35.726562 L 51.539062 36.1875 L 51.789062 36.625 C 51.914062 36.863281 52.125 37.175781 52.25 37.3125 C 52.460938 37.550781 52.449219 37.613281 52.074219 39.050781 C 51.699219 40.460938 51.648438 40.550781 51.3125 40.648438 C 50.988281 40.738281 50.835938 40.625 49.289062 39.148438 C 48.363281 38.273438 47.074219 37.050781 46.398438 36.414062 C 45.363281 35.425781 45.238281 35.261719 45.5 35.261719 C 45.675781 35.261719 47.101562 35.476562 48.675781 35.726562 Z M 42.074219 36.324219 C 42.414062 36.460938 42.726562 36.5 43.125 36.449219 C 43.4375 36.398438 43.789062 36.351562 43.898438 36.335938 C 44.085938 36.3125 49.625 41.425781 49.625 41.625 C 49.625 41.675781 36.988281 40.398438 36.914062 40.335938 C 36.898438 40.324219 36.875 40.148438 36.851562 39.949219 C 36.8125 39.625 36.988281 39.460938 39.0625 37.875 C 40.300781 36.925781 41.375 36.136719 41.449219 36.136719 C 41.523438 36.125 41.8125 36.210938 42.074219 36.324219 Z M 18.398438 37.585938 C 18.863281 38 18.523438 38.875 17.886719 38.875 C 17.585938 38.875 17.25 38.488281 17.25 38.148438 C 17.25 37.488281 17.925781 37.164062 18.398438 37.585938 Z M 34.824219 39.574219 C 35.335938 39.925781 35.574219 40.699219 35.335938 41.289062 C 35.074219 41.914062 34.574219 42.25 33.914062 42.25 C 33.4375 42.25 33.289062 42.1875 32.925781 41.824219 C 31.664062 40.5625 33.324219 38.601562 34.824219 39.574219 Z M 25.4375 40.125 C 27.574219 40.476562 29.414062 40.800781 29.539062 40.851562 C 29.699219 40.914062 29.1875 41.074219 28.011719 41.324219 L 26.25 41.699219 L 25.960938 41.398438 C 25.8125 41.238281 25.539062 41.023438 25.351562 40.925781 C 24.886719 40.6875 23.8125 40.699219 23.375 40.960938 L 23.023438 41.164062 L 21.949219 40.324219 C 21.363281 39.863281 20.875 39.460938 20.875 39.425781 C 20.875 39.386719 21.023438 39.386719 21.226562 39.425781 C 21.414062 39.460938 23.3125 39.789062 25.4375 40.125 Z M 43 42.5 C 45.648438 42.773438 47.898438 43.023438 48 43.039062 C 48.101562 43.0625 47.210938 43.386719 46.011719 43.773438 L 43.835938 44.488281 L 43.398438 44.148438 C 42.851562 43.738281 41.738281 43.625 41.148438 43.925781 L 40.761719 44.125 L 39.039062 43.050781 C 38.085938 42.460938 37.289062 41.949219 37.25 41.925781 C 37.226562 41.886719 37.425781 41.898438 37.6875 41.9375 C 37.960938 41.976562 40.351562 42.226562 43 42.5 Z M 52.476562 42.613281 C 52.539062 42.988281 52.289062 43.25 51.875 43.25 C 51.199219 43.25 51.023438 42.460938 51.625 42.164062 C 52 41.976562 52.414062 42.1875 52.476562 42.613281 Z M 24.851562 42.398438 C 25.25 42.800781 24.789062 43.550781 24.238281 43.414062 C 23.875 43.3125 23.6875 42.851562 23.863281 42.511719 C 24.023438 42.226562 24.601562 42.148438 24.851562 42.398438 Z M 38.050781 44.199219 L 40 45.398438 L 40 45.898438 C 40 46.6875 40.460938 47.351562 41.3125 47.789062 C 41.664062 47.960938 41.6875 48.050781 41.875 49.238281 L 42.074219 50.5 L 41.800781 50.6875 C 41.648438 50.773438 41.398438 51.125 41.25 51.4375 C 41.023438 51.914062 40.988281 52.148438 41.050781 52.675781 L 41.125 53.324219 L 40.199219 54.238281 C 39.375 55.050781 39.238281 55.136719 38.925781 55.074219 L 38.5625 54.988281 L 37.023438 49.273438 C 36.1875 46.136719 35.5 43.511719 35.5 43.449219 C 35.5 43.335938 35.875 43.011719 36.011719 43 C 36.0625 43 36.976562 43.539062 38.050781 44.199219 Z M 42.625 45.5 C 42.800781 45.824219 42.6875 46.210938 42.363281 46.386719 C 41.824219 46.675781 41.210938 45.835938 41.648438 45.398438 C 41.898438 45.148438 42.476562 45.210938 42.625 45.5 Z M 43.601562 51.898438 C 43.925781 52.226562 43.601562 53 43.148438 53 C 42.875 53 42.5 52.625 42.5 52.363281 C 42.5 51.863281 43.25 51.550781 43.601562 51.898438 Z M 38.800781 56.699219 C 39.0625 56.949219 39.050781 57.238281 38.789062 57.523438 C 38.539062 57.800781 38.210938 57.8125 37.949219 57.550781 C 37.5625 57.175781 37.835938 56.5 38.375 56.5 C 38.5 56.5 38.699219 56.585938 38.800781 56.699219 Z M 38.800781 56.699219 "/>
</g>
</svg>
