<?xml version="1.0" standalone="no"?>
<!DOCTYPE svg PUBLIC "-//W3C//DTD SVG 20010904//EN"
 "http://www.w3.org/TR/2001/REC-SVG-20010904/DTD/svg10.dtd">
<svg enable-background="new 0 0 64 64" height="64px" id="Icons" version="1.1" viewBox="0 0 64 64" width="64px" xml:space="preserve" xmlns="http://www.w3.org/2000/svg" xmlns:xlink="http://www.w3.org/1999/xlink">

<g transform="translate(0.000000,512.000000) scale(0.100000,-0.100000)"
fill="#37474F" stroke="none">
<path d="M2142 4629 c-47 -24 -79 -62 -88 -108 -4 -17 -11 -35 -18 -40 -6 -4
-102 -37 -214 -71 l-204 -63 -36 36 c-55 52 -98 70 -167 70 -74 0 -128 -25
-178 -83 -54 -64 -67 -135 -42 -235 4 -16 -34 -52 -192 -185 -107 -91 -240
-202 -293 -247 l-98 -83 -36 15 c-53 22 -111 19 -165 -10 -154 -84 -140 -294
24 -365 l40 -17 24 -166 24 -165 -41 -39 c-143 -136 0 -374 187 -310 l43 15
274 -221 274 -222 0 -61 c0 -47 5 -69 23 -95 49 -73 131 -103 205 -76 l44 15
124 -96 c109 -86 123 -101 124 -127 0 -40 38 -114 71 -138 37 -27 97 -38 142
-26 48 13 103 61 116 102 l11 32 188 42 187 41 34 -40 c38 -44 119 -88 163
-88 24 0 29 -6 39 -42 6 -24 62 -233 125 -466 l114 -422 -21 -21 c-78 -78 -57
-215 41 -266 75 -40 149 -26 207 40 36 41 49 89 38 144 -6 35 -4 39 71 114 71
72 79 77 103 67 66 -25 167 25 197 99 38 89 -12 199 -102 227 -18 5 -23 21
-36 108 l-15 102 32 31 c18 17 38 48 44 71 l11 40 237 76 c232 75 238 76 258
59 34 -31 66 -43 115 -43 149 0 227 175 125 282 l-24 25 31 122 31 121 37 11
c22 6 53 28 73 50 47 53 57 111 29 174 l-20 46 93 158 93 158 45 7 c25 3 57
14 71 25 31 22 66 89 66 126 0 65 -57 138 -119 152 -28 6 -32 14 -110 241 -45
130 -81 240 -81 246 0 6 11 23 25 40 73 87 45 227 -56 278 -45 24 -124 29
-158 10 -19 -10 -33 -1 -135 90 l-113 102 9 40 c32 145 -103 292 -254 275 -26
-4 -70 -18 -96 -33 l-48 -27 -237 93 c-217 85 -237 95 -237 117 0 63 -64 141
-134 163 -75 24 -165 -9 -207 -77 l-22 -35 -215 4 c-165 3 -217 7 -220 17 -9
26 -68 84 -99 97 -47 20 -102 17 -151 -7z m120 -116 c26 -24 23 -69 -7 -89
-29 -19 -60 -11 -81 20 -36 56 38 115 88 69z m786 -13 c60 -56 -17 -150 -81
-99 -33 25 -36 70 -7 99 26 26 60 25 88 0z m-223 -118 c6 -9 31 -38 58 -65
l47 -47 0 -80 0 -80 -37 -18 -37 -19 -218 163 c-120 91 -218 165 -218 167 0 1
89 1 197 -1 173 -3 199 -6 208 -20z m-752 -54 c-11 -18 -84 -147 -162 -285
l-143 -253 -40 0 -39 0 -60 124 -60 124 32 45 c17 25 37 69 43 98 l12 52 200
63 c109 34 207 63 217 63 18 1 18 0 0 -31z m-595 -15 c12 -7 30 -29 39 -48 35
-73 -23 -155 -108 -155 -94 0 -143 125 -75 189 43 41 94 46 144 14z m1884 -66
c117 -46 222 -87 233 -91 31 -11 12 -18 -228 -82 l-218 -57 -22 25 c-12 14
-34 34 -49 43 -27 17 -28 21 -28 100 0 82 0 83 29 95 16 6 37 20 47 31 9 10
19 19 20 19 2 0 100 -37 216 -83z m-802 -102 c222 -167 238 -183 212 -221 -4
-6 -194 -62 -422 -124 -228 -62 -422 -115 -432 -117 -10 -3 -23 5 -32 20 -16
24 -13 30 142 303 l159 279 46 7 c25 3 54 11 64 17 10 6 23 9 30 6 7 -2 111
-79 233 -170z m1350 20 c48 -46 47 -110 -2 -162 -63 -68 -188 -13 -188 82 0
99 118 149 190 80z m-2510 -174 l54 -6 54 -122 54 -121 -30 -39 c-16 -21 -35
-54 -41 -74 -11 -35 -15 -37 -64 -43 -114 -13 -690 -57 -709 -54 -15 2 54 66
271 250 l292 248 32 -17 c18 -9 57 -19 87 -22z m2235 -26 c14 -25 42 -56 61
-68 l36 -22 -6 -105 c-9 -148 -17 -200 -30 -200 -7 0 -29 -9 -51 -20 l-39 -20
-218 157 c-204 147 -219 159 -213 183 4 14 8 27 11 29 6 6 386 109 406 110 9
1 27 -18 43 -44z m-600 0 c49 -48 17 -135 -50 -135 -47 0 -64 8 -81 42 -42 81
67 158 131 93z m1058 -160 c99 -89 106 -97 97 -121 -6 -14 -10 -35 -10 -47 0
-19 -20 -32 -125 -80 l-126 -57 -40 30 c-22 16 -44 30 -50 32 -5 2 -4 60 3
146 l11 142 36 10 c20 6 47 17 61 25 14 8 28 14 31 15 3 0 53 -43 112 -95z
m-1265 -33 c15 -16 35 -33 45 -38 16 -9 16 -18 -4 -167 -22 -154 -22 -157 -48
-163 -65 -14 -114 -39 -156 -80 -25 -24 -49 -44 -52 -44 -5 0 -211 79 -671
257 -7 3 -11 10 -9 16 2 7 778 228 865 246 2 1 16 -12 30 -27z m494 -186 c117
-84 212 -156 211 -160 -2 -3 -3 -28 -3 -54 l0 -49 -196 -42 c-108 -24 -199
-39 -203 -35 -4 5 -20 26 -36 48 -15 21 -50 52 -77 69 -33 21 -48 37 -48 51 1
30 37 287 42 290 18 11 76 35 85 35 6 1 108 -68 225 -153z m1091 102 c9 -7 19
-25 22 -40 5 -21 1 -33 -19 -52 -14 -15 -34 -26 -46 -26 -11 0 -32 11 -46 26
-42 42 -15 104 46 104 14 0 34 -6 43 -12z m-2653 -33 c37 -19 50 -43 50 -95 0
-59 -42 -100 -100 -100 -34 0 -48 6 -76 34 -47 47 -47 95 0 142 38 38 77 44
126 19z m-1209 -138 c80 -61 10 -177 -86 -141 -23 9 -48 62 -41 90 14 53 86
83 127 51z m3771 -58 l51 -17 83 -240 c61 -179 80 -243 71 -250 -8 -6 -95 43
-272 155 -143 90 -265 167 -272 171 -8 5 -9 24 -5 61 l7 54 125 58 c115 53
126 56 142 42 10 -9 41 -24 70 -34z m-2798 -26 l30 -37 -64 -122 -64 -122 -66
-4 c-59 -5 -95 -17 -141 -50 -14 -9 -55 12 -240 127 -123 76 -237 148 -254
159 l-30 21 370 31 c204 17 384 32 400 33 23 1 37 -7 59 -36z m2276 12 c32
-17 60 -61 60 -95 0 -37 -30 -81 -67 -96 -70 -30 -143 21 -143 100 1 47 14 69
56 91 37 19 57 19 94 0z m-1526 -165 l299 -116 4 -54 c2 -30 4 -66 6 -79 2
-20 -16 -37 -105 -103 l-107 -79 -38 24 c-56 35 -106 49 -169 46 l-57 -3 -117
245 c-80 166 -114 248 -108 256 8 9 19 8 51 -5 23 -9 177 -68 341 -132z m-408
-137 c53 -109 104 -216 114 -238 l17 -40 -36 -41 -36 -40 -156 54 -156 54 -7
44 c-6 49 -28 98 -58 130 -19 22 -19 22 12 85 18 35 48 92 67 127 l35 62 54 0
55 0 95 -197z m-968 -8 c241 -149 242 -150 236 -180 -4 -16 -10 -33 -15 -36
-5 -3 -85 -22 -177 -43 l-168 -37 -37 35 c-20 19 -49 37 -65 41 l-29 6 -25
172 c-23 157 -24 173 -9 184 9 7 23 12 31 10 9 -1 125 -69 258 -152z m2025
141 c50 -18 76 -42 98 -91 24 -51 23 -89 0 -142 -27 -59 -88 -97 -155 -97
-153 0 -229 181 -121 289 52 52 110 65 178 41z m657 -69 c0 -28 -163 -613
-172 -618 -32 -21 -52 -3 -181 162 l-135 172 29 53 c15 30 31 74 34 98 l7 45
97 21 c53 12 141 32 196 45 101 24 125 28 125 22z m601 -194 c147 -93 268
-170 268 -173 0 -3 -193 -77 -431 -164 -440 -163 -446 -164 -471 -125 -7 11
12 100 64 296 l73 280 62 0 c48 -1 73 5 111 25 26 15 50 27 52 27 2 1 124 -74
272 -166z m-2735 -16 c47 -43 56 -97 22 -147 -27 -39 -84 -66 -123 -56 -45 11
-86 57 -92 103 -15 111 110 176 193 100z m1319 -155 c55 -21 102 -24 161 -11
33 7 63 13 67 14 14 0 276 -340 268 -348 -5 -4 -127 15 -272 43 -277 54 -520
100 -524 100 -1 0 -5 17 -8 38 -3 20 -8 46 -11 57 -5 16 14 34 102 96 l107 77
40 -27 c22 -15 54 -33 70 -39z m1906 22 c9 -11 10 -20 2 -32 -15 -24 -44 -27
-59 -7 -28 38 27 75 57 39z m-4014 -78 c6 -6 15 -23 18 -38 5 -21 1 -33 -19
-52 -14 -15 -34 -26 -46 -26 -25 0 -70 42 -70 65 0 60 75 92 117 51z m531 -26
c34 -40 97 -80 127 -80 10 0 15 -9 15 -27 0 -16 7 -107 15 -203 19 -228 19
-223 -3 -218 -10 3 -138 103 -285 222 -261 212 -289 241 -255 262 11 7 317 81
342 83 5 1 25 -17 44 -39z m1080 13 c98 -72 98 -204 -1 -277 -42 -31 -140 -30
-186 3 -38 27 -70 91 -71 139 0 60 49 130 110 155 30 13 121 1 148 -20z m-395
-98 c12 -5 17 -19 17 -49 1 -22 7 -57 14 -77 l13 -37 -191 -144 c-178 -135
-193 -144 -218 -134 -18 6 -28 17 -28 30 0 12 -7 98 -15 191 -21 237 -21 227
19 249 19 10 46 31 61 46 l27 28 141 -48 c78 -26 150 -51 160 -55z m2541 -99
c-80 -135 -88 -146 -115 -146 -42 0 -96 -25 -127 -58 l-27 -29 -220 34 c-121
19 -227 36 -235 39 -8 3 170 74 395 158 226 84 411 151 413 150 2 -1 -36 -68
-84 -148z m-1619 -121 c471 -90 442 -83 448 -105 4 -15 -35 -48 -184 -161
l-190 -142 -48 23 c-48 22 -125 30 -166 17 -18 -6 -37 16 -136 160 -64 93
-119 173 -123 180 -6 12 40 93 53 93 4 0 160 -29 346 -65z m679 -6 c36 -28 36
-80 0 -108 -15 -12 -34 -21 -44 -21 -34 0 -70 39 -70 75 0 36 36 75 70 75 10
0 29 -9 44 -21z m-1428 -66 c40 -23 62 -28 119 -28 39 0 82 3 96 7 25 7 33 -1
149 -169 l123 -176 -17 -32 -17 -31 -437 73 c-240 40 -441 73 -445 73 -5 0 -7
7 -5 16 3 17 354 292 374 293 6 1 33 -11 60 -26z m2293 -105 c14 -24 14 -28
-3 -47 -36 -39 -86 -21 -86 31 0 51 63 63 89 16z m-445 -16 l229 -37 20 -35
c10 -19 27 -44 37 -55 17 -19 16 -24 -14 -139 -30 -113 -34 -120 -61 -128 -26
-7 -38 2 -162 120 -74 70 -177 168 -231 219 -83 79 -93 92 -72 92 14 0 128
-17 254 -37z m-528 -48 c27 -11 52 -14 84 -10 25 4 53 8 62 9 15 2 458 -407
458 -423 0 -4 -1011 98 -1017 103 -1 1 -3 15 -5 31 -3 26 11 39 177 166 99 76
185 139 191 139 6 1 29 -6 50 -15z m-1894 -101 c37 -33 10 -103 -41 -103 -24
0 -51 31 -51 58 0 53 54 79 92 45z m1314 -159 c41 -28 60 -90 41 -137 -21 -50
-61 -77 -114 -77 -38 0 -50 5 -79 34 -101 101 32 258 152 180z m-751 -44 c171
-28 318 -54 328 -58 13 -5 -28 -18 -122 -38 l-141 -30 -23 24 c-12 13 -34 30
-49 38 -37 19 -123 18 -158 -3 l-28 -16 -86 67 c-47 37 -86 69 -86 72 0 3 12
3 28 0 15 -3 167 -29 337 -56z m1405 -190 c212 -22 392 -42 400 -43 8 -2 -63
-28 -159 -59 l-174 -57 -35 27 c-44 33 -133 42 -180 18 l-31 -16 -138 86 c-76
47 -140 88 -143 90 -2 3 14 2 35 -1 22 -3 213 -23 425 -45z m758 -9 c5 -30
-15 -51 -48 -51 -54 0 -68 63 -20 87 30 15 63 -2 68 -36z m-2210 17 c32 -32
-5 -92 -49 -81 -29 8 -44 45 -30 72 13 23 59 29 79 9z m1056 -144 l156 -96 0
-40 c0 -63 37 -116 105 -151 28 -14 30 -21 45 -116 l16 -101 -22 -15 c-12 -7
-32 -35 -44 -60 -18 -38 -21 -57 -16 -99 l6 -52 -74 -73 c-66 -65 -77 -72
-102 -67 l-29 7 -123 457 c-67 251 -122 461 -122 466 0 9 30 35 41 36 4 0 77
-43 163 -96z m366 -104 c14 -26 5 -57 -21 -71 -43 -23 -92 44 -57 79 20 20 66
15 78 -8z m78 -512 c26 -26 0 -88 -36 -88 -22 0 -52 30 -52 51 0 40 60 65 88
37z m-384 -384 c21 -20 20 -43 -1 -66 -20 -22 -46 -23 -67 -2 -31 30 -9 84 34
84 10 0 26 -7 34 -16z"/>
</g>
</svg>
