<svg xmlns="http://www.w3.org/2000/svg" xmlns:xlink="http://www.w3.org/1999/xlink" enable-background="new 0 0 64 64" height="64" version="1.1" width="64" xml:space="preserve" style=""><rect id="backgroundrect" width="100%" height="100%" x="0" y="0" fill="none" stroke="none"/><g class="currentLayer" style=""><title>Layer 1</title><g id="SEO" class="selected" fill="#ffffff" fill-opacity="1"><g id="search_3_" fill="#ffffff" fill-opacity="1"><g id="svg_1" fill="#ffffff" fill-opacity="1"><g id="svg_2" fill="#ffffff" fill-opacity="1"><g id="svg_3" fill="#ffffff" fill-opacity="1"><path d="M27.5,14c3.713,0,7.426,1.415,10.255,4.244c5.66,5.657,5.66,14.854,0,20.511       C34.926,41.585,31.212,43,27.499,43c-3.714,0-7.427-1.415-10.255-4.245c-5.658-5.656-5.658-14.853,0-20.511       C20.073,15.415,23.786,14,27.5,14L27.5,14z M27.5,13c-4.145,0-8.037,1.611-10.963,4.537S12,24.355,12,28.5       s1.611,8.037,4.537,10.962C19.462,42.389,23.354,44,27.499,44c4.144,0,8.037-1.611,10.963-4.538       C41.389,36.537,43,32.644,43,28.5c0-4.145-1.611-8.038-4.538-10.963C35.536,14.611,31.644,13,27.5,13L27.5,13z" fill="#ffffff" id="svg_4" fill-opacity="1"/></g></g></g><g id="svg_5" fill="#ffffff" fill-opacity="1"><g id="svg_6" fill="#ffffff" fill-opacity="1"><g id="svg_7" fill="#ffffff" fill-opacity="1"><path d="M27.5,17c2.945,0,5.891,1.122,8.134,3.365c4.488,4.488,4.488,11.779,0,16.269       C33.391,38.878,30.445,40,27.5,40s-5.891-1.122-8.135-3.366c-4.486-4.487-4.486-11.78,0-16.269       C21.609,18.122,24.555,17,27.5,17L27.5,17z M27.5,16c-3.342,0-6.482,1.3-8.842,3.658c-4.874,4.876-4.874,12.808,0,17.683       C21.018,39.7,24.158,41,27.5,41s6.481-1.3,8.841-3.659c4.875-4.876,4.875-12.808,0-17.683C33.982,17.3,30.843,16,27.5,16       L27.5,16z" fill="#ffffff" id="svg_8" fill-opacity="1"/></g></g></g><g id="svg_9" fill="#ffffff" fill-opacity="1"><g id="svg_10" fill="#ffffff" fill-opacity="1"><path d="M27.5,38.499c-2.563,0-5.124-0.976-7.074-2.925c-0.195-0.195-0.195-0.512,0-0.707s0.512-0.195,0.707,0      c3.51,3.51,9.223,3.51,12.734,0c3.509-3.512,3.509-9.225,0-12.734c-0.195-0.195-0.195-0.512,0-0.707s0.512-0.195,0.707,0      c3.898,3.899,3.898,10.247,0,14.148C32.624,37.523,30.062,38.499,27.5,38.499z" fill="#ffffff" id="svg_11" fill-opacity="1"/></g></g></g><g id="svg_12" fill="#ffffff" fill-opacity="1"><path d="M39.92,47.041c-0.045,0.184-0.148,0.354-0.304,0.445l-1.732,1c-0.255,0.146-0.681,0.066-0.866-0.157    l-2.596-3.154l-0.355-0.459l-0.347,0.131c-1.096,0.416-2.25,0.723-3.431,0.912l-0.38,0.138l-0.738,4.535    C29.121,50.734,28.808,51,28.5,51h-2c-0.308,0-0.621-0.266-0.671-0.568l-0.671-4.022l-0.076-0.591l-0.37-0.06    c-1.179-0.188-2.333-0.495-3.433-0.911l-0.387-0.081l-2.91,3.562c-0.188,0.227-0.611,0.306-0.866,0.158l-1.732-1.001    c-0.266-0.154-0.404-0.54-0.297-0.827l1.434-3.828l0.212-0.523l-0.285-0.233c-0.461-0.376-0.906-0.778-1.324-1.196    s-0.82-0.863-1.196-1.324l-0.232-0.283l-4.352,1.644c-0.283,0.105-0.682-0.043-0.828-0.297l-1-1.733    c-0.153-0.266-0.081-0.669,0.156-0.864l3.158-2.6l0.455-0.353l-0.131-0.347c-0.416-1.096-0.724-2.25-0.912-3.432l-0.072-0.372    l-4.601-0.745C5.266,30.121,5,29.808,5,29.5v-2c0-0.308,0.266-0.621,0.568-0.671l4.03-0.672l0.584-0.08l0.059-0.366    c0.188-1.18,0.496-2.335,0.912-3.432l0.065-0.4l-3.548-2.897c-0.236-0.195-0.31-0.6-0.156-0.865l1-1.732    c0.147-0.256,0.549-0.397,0.827-0.297l3.828,1.434l0.524,0.21l0.232-0.283c0.376-0.461,0.778-0.906,1.196-1.324    c0.419-0.419,0.865-0.821,1.324-1.196l0.284-0.231l-1.645-4.354c-0.107-0.287,0.031-0.673,0.297-0.827l1.733-1    c0.251-0.148,0.677-0.069,0.864,0.156l2.6,3.158l0.353,0.455l0.347-0.131c1.096-0.416,2.25-0.724,3.432-0.912l0.372-0.072    l0.745-4.601C25.879,6.266,26.192,6,26.5,6h2c0.308,0,0.621,0.266,0.671,0.568l0.672,4.03l0.08,0.583l0.366,0.06    c1.18,0.188,2.334,0.495,3.432,0.911l0.4,0.064L37.02,8.67c0.185-0.225,0.608-0.304,0.864-0.155l1.733,1.001    c0.261,0.15,0.402,0.545,0.297,0.827l-1.431,3.82l-0.22,0.527l0.29,0.236c0.456,0.372,0.901,0.774,1.323,1.196    c0.418,0.418,0.82,0.863,1.196,1.324l0.309,0.259l4.276-1.619c0.279-0.103,0.68,0.042,0.827,0.297l1.001,1.732    c0.153,0.266,0.08,0.671-0.157,0.866l-3.153,2.596l-0.46,0.356l0.131,0.347c0.415,1.093,0.722,2.247,0.911,3.43l0.136,0.379    l4.538,0.739C49.734,26.879,50,27.192,50,27.5v2c0,0.308-0.266,0.621-0.568,0.672l-4.03,0.671l-0.585,0.086l-0.059,0.361    c-0.188,1.179-0.495,2.333-0.911,3.431l-0.082,0.387l3.564,2.912c0.237,0.194,0.311,0.599,0.157,0.864l-1,1.731    c-0.087,0.15-0.264,0.254-0.45,0.3l0.758,0.758c0.228-0.142,0.425-0.327,0.558-0.557l1-1.732c0.399-0.692,0.229-1.631-0.388-2.137    l-3.056-2.517c0.336-0.943,0.596-1.923,0.775-2.921l3.913-0.651C50.384,31.026,51,30.298,51,29.5v-2    c0-0.799-0.617-1.526-1.404-1.657l-3.912-0.652c-0.181-1.001-0.44-1.98-0.775-2.92l3.056-2.517    c0.617-0.507,0.787-1.446,0.388-2.138l-1.001-1.732c-0.384-0.668-1.315-1.006-2.044-0.732l-3.692,1.382    c-0.329-0.387-0.675-0.762-1.03-1.117c-0.358-0.358-0.732-0.704-1.116-1.029l1.383-3.693c0.279-0.749-0.043-1.646-0.734-2.044    l-1.731-1c-0.669-0.387-1.654-0.205-2.138,0.387l-2.516,3.055c-0.943-0.335-1.923-0.596-2.922-0.775l-0.652-3.911    C30.027,5.617,29.299,5,28.5,5h-2c-0.799,0-1.527,0.617-1.657,1.404l-0.652,3.911c-1,0.181-1.979,0.44-2.921,0.776l-2.517-3.056    c-0.486-0.593-1.471-0.772-2.137-0.387l-1.732,1c-0.691,0.398-1.014,1.297-0.732,2.044l1.382,3.693    c-0.386,0.327-0.761,0.673-1.117,1.029c-0.355,0.355-0.701,0.73-1.03,1.117l-3.692-1.382c-0.727-0.272-1.659,0.063-2.044,0.732    l-1,1.731c-0.4,0.691-0.23,1.631,0.387,2.138l3.055,2.517c-0.335,0.942-0.596,1.922-0.775,2.921l-3.911,0.652    C4.617,25.973,4,26.701,4,27.5v2c0,0.799,0.617,1.527,1.404,1.657l3.911,0.652c0.181,1,0.44,1.979,0.776,2.921l-3.056,2.516    c-0.617,0.507-0.787,1.446-0.387,2.138l1,1.732c0.385,0.667,1.312,1.008,2.044,0.733l3.692-1.383    c0.329,0.387,0.675,0.762,1.03,1.117s0.73,0.701,1.117,1.03l-1.382,3.692c-0.281,0.747,0.041,1.646,0.732,2.044l1.732,1.001    c0.667,0.387,1.65,0.205,2.138-0.388l2.516-3.055c0.943,0.336,1.923,0.596,2.921,0.775l0.652,3.911    C24.974,51.383,25.701,52,26.5,52h2c0.799,0,1.526-0.617,1.657-1.404l0.652-3.911c1-0.18,1.979-0.44,2.921-0.776l2.516,3.056    c0.486,0.593,1.47,0.775,2.138,0.388l1.733-1c0.234-0.136,0.407-0.341,0.547-0.566L39.92,47.041z" fill="#ffffff" id="svg_13" fill-opacity="1"/><g id="svg_14" fill="#ffffff" fill-opacity="1"><path d="M54.5,59.169c-0.67,0-1.297-0.259-1.768-0.729L39.561,45.268c-0.975-0.975-0.975-2.561,0-3.535     l1.172-1.172c0.471-0.471,1.098-0.729,1.768-0.729l0,0c0.67,0,1.297,0.259,1.768,0.729l13.172,13.172     c0.975,0.975,0.975,2.561,0,3.535l-1.172,1.172C55.797,58.91,55.17,59.169,54.5,59.169z M42.5,40.831     c-0.402,0-0.779,0.155-1.061,0.437l-1.172,1.172c-0.585,0.585-0.585,1.536,0,2.121l13.172,13.172     c0.563,0.563,1.559,0.563,2.121,0l1.172-1.172c0.585-0.585,0.585-1.536,0-2.121L43.561,41.268     C43.279,40.986,42.902,40.831,42.5,40.831z" fill="#ffffff" id="svg_15" fill-opacity="1"/></g><g id="svg_16" fill="#ffffff" fill-opacity="1"><path d="M36.897,40.189c-0.263,0.213-0.536,0.41-0.812,0.603l3.362,3.362c-0.155-0.45-0.151-0.944,0.024-1.39     L36.897,40.189z" fill="#ffffff" id="svg_17" fill-opacity="1"/><path d="M39.793,37.086c-0.193,0.275-0.391,0.548-0.603,0.812l2.575,2.574c0.445-0.175,0.939-0.179,1.39-0.024     L39.793,37.086z" fill="#ffffff" id="svg_18" fill-opacity="1"/></g></g></g></g></svg>