<?xml version="1.0" encoding="UTF-8"?>
<svg xmlns="http://www.w3.org/2000/svg" xmlns:xlink="http://www.w3.org/1999/xlink" width="64px" height="64px" viewBox="0 0 64 64" version="1.1">
<g id="surface1">
<path style=" stroke:none;fill-rule:nonzero;fill:rgb(100%,100%,100%);fill-opacity:1;" d="M 48.960938 0.148438 C 48.550781 0.476562 48.5 0.976562 48.5 5.4375 L 48.5 9.863281 L 48.136719 10.050781 C 47.636719 10.3125 46.898438 11.210938 46.75 11.738281 C 46.6875 11.988281 46.625 12.9375 46.625 13.835938 L 46.625 15.5 L 44.875 15.5 C 43.914062 15.5 43.125 15.476562 43.125 15.4375 C 43.125 15.386719 43.226562 15.1875 43.351562 14.960938 C 43.523438 14.625 43.5625 14.238281 43.5625 12.625 C 43.5625 10.851562 43.539062 10.625 43.261719 10.039062 C 42.925781 9.261719 42.101562 8.460938 41.273438 8.085938 C 40.375 7.675781 39.023438 7.699219 38.101562 8.164062 C 37.226562 8.585938 36.460938 9.425781 36.164062 10.289062 C 35.851562 11.199219 35.851562 14.210938 36.164062 14.925781 C 36.273438 15.1875 36.375 15.425781 36.375 15.449219 C 36.375 15.476562 35.738281 15.5 34.949219 15.5 C 32.851562 15.5 32.800781 15.523438 30.4375 17.863281 L 28.4375 19.851562 L 25.039062 21.550781 L 21.625 23.25 L 18.8125 23.25 C 17.261719 23.25 16 23.226562 16 23.199219 C 16 23.175781 16.085938 22.914062 16.1875 22.625 C 16.324219 22.25 16.375 21.574219 16.375 20.261719 C 16.375 18.710938 16.335938 18.351562 16.125 17.886719 C 15.699219 16.960938 15.175781 16.414062 14.273438 15.976562 C 13.5625 15.625 13.3125 15.5625 12.5625 15.574219 C 11.0625 15.585938 9.863281 16.324219 9.148438 17.6875 C 8.851562 18.261719 8.8125 18.460938 8.773438 20.0625 C 8.738281 21.523438 8.761719 21.9375 8.960938 22.511719 L 9.199219 23.199219 L 8.25 23.324219 C 6.398438 23.574219 5.085938 24.5 4.335938 26.101562 L 3.9375 26.9375 L 3.9375 40.0625 L 4.300781 40.726562 C 4.851562 41.710938 5.925781 42.414062 7.175781 42.574219 L 7.75 42.664062 L 7.75 56.375 L 0.539062 56.375 L 0.273438 56.664062 C 0.0117188 56.949219 0 57.039062 0 60.175781 L 0 63.386719 L 0.3125 63.6875 L 0.613281 64 L 63.386719 64 L 63.6875 63.6875 L 64 63.386719 L 64 45.238281 L 63.6875 44.9375 C 63.386719 44.625 63.351562 44.625 61.210938 44.625 C 59.199219 44.625 59.011719 44.648438 58.699219 44.886719 C 58.273438 45.226562 58.25 45.851562 58.664062 46.226562 C 58.925781 46.476562 59.085938 46.5 60.539062 46.5 L 62.125 46.5 L 62.125 62.125 L 48.5 62.125 L 48.5 46.5 L 55.613281 46.5 L 55.863281 46.175781 C 56.210938 45.738281 56.1875 45.3125 55.8125 44.9375 C 55.523438 44.636719 55.4375 44.625 53.9375 44.625 L 52.375 44.625 L 52.375 40.023438 C 52.363281 35.113281 52.335938 34.914062 51.710938 34.085938 C 51.511719 33.824219 50.199219 32.949219 48.011719 31.625 L 44.625 29.5625 L 44.625 28.300781 C 44.625 27.210938 44.585938 26.988281 44.363281 26.699219 C 44.039062 26.289062 43.375 26.25 43 26.625 C 42.789062 26.835938 42.75 27.039062 42.75 28 L 42.75 29.125 L 36.886719 29.125 L 36.851562 24.5625 C 36.8125 20.011719 36.8125 20.011719 36.523438 19.726562 C 36.289062 19.476562 36.113281 19.4375 35.3125 19.4375 L 34.375 19.4375 L 32.539062 21.273438 L 30.6875 23.101562 L 28.789062 24.050781 L 26.875 25 L 26.875 22.75 L 28.164062 22.113281 C 29.375 21.511719 29.550781 21.363281 31.511719 19.425781 L 33.574219 17.375 L 47.886719 17.375 L 48.1875 17.0625 C 48.5 16.761719 48.5 16.738281 48.5 14.523438 C 48.5 12.449219 48.523438 12.261719 48.761719 11.949219 C 49.113281 11.511719 49.761719 11.5 50.1875 11.9375 L 50.5 12.238281 L 50.5 15.148438 C 50.5 19.488281 50.613281 19.375 46.300781 19.375 C 43.5625 19.375 43.386719 19.386719 43.074219 19.636719 L 42.75 19.886719 L 42.75 23.613281 L 43.074219 23.863281 C 43.449219 24.164062 43.613281 24.1875 44.039062 23.988281 C 44.488281 23.789062 44.625 23.363281 44.625 22.25 L 44.625 21.25 L 47.101562 21.25 C 49.414062 21.25 49.601562 21.226562 50.1875 20.949219 C 51.023438 20.5625 51.9375 19.539062 52.1875 18.710938 C 52.425781 17.914062 52.460938 12.5 52.226562 11.726562 C 52.050781 11.125 51.273438 10.210938 50.75 10 L 50.375 9.851562 L 50.375 7.75 L 54.375 7.75 L 54.375 9.363281 C 54.375 11.648438 54.261719 11.550781 56.949219 11.601562 C 59.238281 11.648438 59.511719 11.613281 59.875 11.25 C 60.101562 11.023438 60.125 10.824219 60.125 8.761719 C 60.125 5.761719 60.210938 5.875 57.925781 5.875 L 56.25 5.875 L 56.25 4.261719 C 56.25 2.835938 56.226562 2.625 55.988281 2.335938 L 55.738281 2 L 53.085938 1.976562 L 50.4375 1.9375 L 50.398438 1.25 C 50.375 0.761719 50.289062 0.488281 50.101562 0.273438 C 49.800781 -0.0234375 49.289062 -0.0859375 48.960938 0.148438 Z M 54.375 4.875 L 54.375 5.886719 L 52.414062 5.851562 L 50.4375 5.8125 L 50.398438 4.835938 L 50.363281 3.875 L 54.375 3.875 Z M 58.25 8.75 L 58.25 9.75 L 56.25 9.75 L 56.25 7.75 L 58.25 7.75 Z M 40.925781 10.039062 C 41.636719 10.585938 41.773438 11.050781 41.726562 12.75 C 41.6875 14.023438 41.648438 14.289062 41.425781 14.585938 C 40.585938 15.699219 38.914062 15.699219 38.074219 14.585938 C 37.835938 14.273438 37.8125 14.0625 37.8125 12.648438 C 37.8125 10.773438 37.960938 10.363281 38.875 9.898438 C 39.585938 9.539062 40.324219 9.585938 40.925781 10.039062 Z M 13.613281 17.726562 C 13.789062 17.851562 14.0625 18.148438 14.226562 18.375 C 14.476562 18.75 14.5 18.9375 14.5 20.363281 C 14.5 22.210938 14.351562 22.601562 13.460938 23 C 12.773438 23.324219 12.300781 23.3125 11.625 22.960938 C 10.75 22.523438 10.613281 22.136719 10.648438 20.226562 C 10.6875 18.398438 10.800781 18.148438 11.761719 17.648438 C 12.398438 17.3125 13.101562 17.335938 13.613281 17.726562 Z M 35 35.0625 L 35 48.5 L 33.386719 48.5 C 31.851562 48.5 31.75 48.511719 31.414062 48.800781 C 31.0625 49.101562 31.0625 49.125 31.011719 50.738281 L 30.976562 52.375 L 25.125 52.375 L 25.125 47.648438 C 25.125 43.335938 25.101562 42.898438 24.886719 42.4375 C 24.761719 42.164062 24.511719 41.800781 24.324219 41.625 C 24.136719 41.449219 22.511719 40.414062 20.710938 39.3125 L 17.4375 37.3125 L 17.398438 35.914062 C 17.363281 34.574219 17.351562 34.5 17.039062 34.25 C 16.636719 33.9375 16.238281 33.925781 15.863281 34.238281 C 15.585938 34.449219 15.5625 34.601562 15.523438 35.675781 L 15.476562 36.875 L 9.625 36.875 L 9.625 33.289062 C 9.625 29.773438 9.625 29.699219 9.351562 29.414062 C 8.976562 29 8.351562 29.023438 8.011719 29.449219 C 7.75 29.773438 7.75 29.914062 7.75 35.289062 L 7.75 40.789062 L 7.226562 40.710938 C 6.648438 40.636719 6.136719 40.3125 5.898438 39.863281 C 5.789062 39.636719 5.75 38.148438 5.773438 33.375 C 5.8125 26.539062 5.773438 26.863281 6.636719 26.023438 C 7.523438 25.148438 7.164062 25.199219 15.125 25.125 L 22.3125 25.0625 L 23.585938 24.398438 C 24.300781 24.050781 24.898438 23.75 24.9375 23.75 C 24.976562 23.75 25 24.25 25 24.851562 L 25 25.949219 L 23.664062 26.601562 L 22.3125 27.25 L 16.011719 27.25 L 15.761719 27.574219 C 15.523438 27.875 15.5 28.074219 15.5 29.5 C 15.5 30.925781 15.523438 31.125 15.761719 31.425781 C 16.085938 31.835938 16.75 31.875 17.125 31.5 C 17.335938 31.289062 17.375 31.085938 17.375 30.199219 L 17.375 29.148438 L 20.1875 29.101562 L 22.988281 29.0625 L 27.398438 26.851562 L 31.8125 24.648438 L 33.3125 23.136719 C 34.136719 22.300781 34.851562 21.625 34.898438 21.625 C 34.960938 21.625 35 27.675781 35 35.0625 Z M 46.835938 33.085938 C 49.210938 34.539062 50.3125 35.273438 50.386719 35.476562 C 50.449219 35.636719 50.5 37.761719 50.5 40.199219 L 50.5 44.625 L 48.511719 44.625 L 48.476562 40.6875 C 48.4375 36.949219 48.425781 36.75 48.1875 36.511719 C 47.835938 36.164062 40.023438 32.5 39.648438 32.5 C 39.476562 32.5 39.226562 32.585938 39.101562 32.710938 C 38.886719 32.898438 38.875 33.3125 38.875 40.710938 L 38.875 48.5 L 36.875 48.5 L 36.875 31 L 43.398438 31 Z M 43.75 36.363281 L 46.5625 37.699219 L 46.601562 43.101562 L 46.625 48.5 L 40.75 48.5 L 40.75 41.75 C 40.75 38.039062 40.789062 35 40.851562 35.011719 C 40.898438 35.011719 42.199219 35.625 43.75 36.363281 Z M 19.5 40.761719 C 21.324219 41.875 22.914062 42.863281 23.039062 42.976562 C 23.238281 43.148438 23.25 43.539062 23.25 47.773438 L 23.25 52.375 L 21.25 52.375 L 21.25 48.460938 C 21.25 45.523438 21.210938 44.5 21.101562 44.335938 C 20.886719 44.050781 12.835938 40.25 12.449219 40.25 C 12.261719 40.25 12.039062 40.386719 11.886719 40.574219 C 11.625 40.898438 11.625 41.011719 11.625 48.574219 L 11.625 56.25 L 9.625 56.25 L 9.625 38.75 L 16.199219 38.75 Z M 16.648438 44.164062 L 19.363281 45.4375 L 19.375 48.898438 L 19.375 52.375 L 17.800781 52.375 C 16.238281 52.375 16.226562 52.375 15.863281 52.738281 L 15.5 53.101562 L 15.5 56.386719 L 14.539062 56.351562 L 13.5625 56.3125 L 13.523438 49.511719 C 13.5 43.074219 13.511719 42.726562 13.710938 42.800781 C 13.835938 42.851562 15.164062 43.460938 16.648438 44.164062 Z M 46.625 56.25 L 46.625 62.125 L 33 62.125 L 33 50.375 L 46.625 50.375 Z M 31 58.1875 L 31 62.125 L 17.375 62.125 L 17.375 58.273438 C 17.375 56.148438 17.414062 54.375 17.460938 54.335938 C 17.5 54.289062 20.574219 54.25 24.273438 54.25 L 31 54.25 Z M 15.5 60.1875 L 15.5 62.125 L 1.875 62.125 L 1.875 58.25 L 15.5 58.25 Z M 15.5 60.1875 "/>
</g>
</svg>
