<?xml version="1.0" standalone="no"?>
<!DOCTYPE svg PUBLIC "-//W3C//DTD SVG 20010904//EN"
 "http://www.w3.org/TR/2001/REC-SVG-20010904/DTD/svg10.dtd">
<svg version="1.0" xmlns="http://www.w3.org/2000/svg"
 width="512.000000pt" height="512.000000pt" viewBox="0 0 512.000000 512.000000"
 preserveAspectRatio="xMidYMid meet">

<g transform="translate(0.000000,512.000000) scale(0.100000,-0.100000)"
fill="#37474F" stroke="none">
<path d="M3917 5108 c-33 -26 -37 -66 -37 -423 l0 -354 -29 -15 c-40 -21 -99
-93 -111 -135 -5 -20 -10 -96 -10 -168 l0 -133 -140 0 c-77 0 -140 2 -140 5 0
4 8 20 18 38 14 27 17 58 17 187 0 142 -2 160 -24 207 -27 62 -93 126 -159
156 -72 33 -180 31 -254 -6 -70 -34 -131 -101 -155 -170 -25 -73 -25 -314 0
-371 9 -21 17 -40 17 -42 0 -2 -51 -4 -114 -4 -168 0 -172 -2 -361 -189 l-160
-159 -272 -136 -273 -136 -225 0 c-124 0 -225 2 -225 4 0 2 7 23 15 46 11 30
15 84 15 189 0 124 -3 153 -20 190 -34 74 -76 118 -148 153 -57 28 -77 33
-137 32 -120 -1 -216 -60 -273 -169 -24 -46 -27 -62 -30 -190 -3 -117 -1 -150
15 -196 l19 -55 -76 -10 c-148 -20 -253 -94 -313 -222 l-32 -67 0 -525 0 -525
29 -53 c44 -79 130 -135 230 -148 l46 -7 0 -548 0 -549 -288 0 -289 0 -21 -23
c-21 -23 -22 -30 -22 -281 l0 -257 25 -24 24 -25 2511 0 2511 0 24 25 25 24 0
726 0 726 -25 24 c-24 25 -27 25 -198 25 -161 0 -176 -2 -201 -21 -34 -27 -36
-77 -3 -107 21 -20 34 -22 150 -22 l127 0 0 -625 0 -625 -545 0 -545 0 0 625
0 625 284 0 285 0 20 26 c28 35 26 69 -4 99 -23 24 -30 25 -150 25 l-125 0 0
368 c-1 393 -3 409 -53 475 -16 21 -121 91 -296 197 l-271 165 0 101 c0 87 -3
105 -21 128 -26 33 -79 36 -109 6 -17 -17 -20 -33 -20 -110 l0 -90 -235 0
-234 0 -3 365 c-3 364 -3 364 -26 387 -19 20 -33 23 -97 23 l-75 0 -147 -147
-148 -146 -152 -76 -153 -76 0 90 0 90 103 51 c97 48 111 60 268 215 l165 164
573 0 572 0 24 25 c25 24 25 26 25 203 0 166 2 181 21 206 28 35 80 36 114 1
l25 -24 0 -233 c0 -347 9 -338 -336 -338 -219 0 -233 -1 -258 -21 l-26 -20 0
-149 0 -149 26 -20 c30 -24 43 -26 77 -10 36 16 47 50 47 139 l0 80 198 0
c185 0 200 2 247 24 67 31 140 113 160 179 19 64 22 497 3 559 -14 48 -76 121
-118 138 l-30 12 0 84 0 84 160 0 160 0 0 -129 c0 -183 -9 -175 206 -179 183
-4 205 -1 234 28 18 18 20 34 20 199 0 240 7 231 -176 231 l-134 0 0 129 c0
114 -2 131 -21 154 l-20 27 -212 2 -212 3 -3 55 c-2 39 -9 61 -24 78 -24 24
-65 29 -91 10z m433 -378 l0 -81 -157 3 -158 3 -3 78 -3 77 161 0 160 0 0 -80z
m310 -310 l0 -80 -80 0 -80 0 0 80 0 80 80 0 80 0 0 -80z m-1386 -103 c57 -44
68 -81 64 -217 -3 -102 -6 -123 -24 -147 -67 -89 -201 -89 -268 0 -19 25 -21
42 -21 155 0 150 12 183 85 220 57 29 116 25 164 -11z m-2185 -615 c14 -10 36
-34 49 -52 20 -30 22 -45 22 -159 0 -148 -12 -179 -83 -211 -55 -26 -93 -25
-147 3 -70 35 -81 66 -78 219 3 146 12 166 89 206 51 27 107 25 148 -6z m1711
-1387 l0 -1075 -129 0 c-123 0 -131 -1 -158 -24 -28 -24 -28 -26 -32 -155 l-3
-131 -234 0 -234 0 0 378 c0 345 -2 380 -19 417 -10 22 -30 51 -45 65 -15 14
-145 97 -289 185 l-262 160 -3 112 c-3 107 -4 113 -29 133 -32 25 -64 26 -94
1 -22 -17 -24 -29 -27 -115 l-4 -96 -234 0 -234 0 0 287 c0 281 0 287 -22 310
-30 33 -80 31 -107 -3 -21 -26 -21 -37 -21 -467 l0 -440 -42 6 c-46 6 -87 32
-106 68 -9 18 -12 137 -10 519 3 547 0 521 69 588 71 70 42 66 679 72 l575 5
102 53 c57 28 105 52 108 52 3 0 5 -40 5 -88 l0 -88 -107 -52 -108 -52 -252 0
-252 0 -20 -26 c-19 -24 -21 -40 -21 -154 0 -114 2 -130 21 -154 26 -33 79
-36 109 -6 17 17 20 33 20 104 l0 84 225 4 224 3 353 177 353 176 120 121 c66
67 123 121 127 121 5 0 8 -484 8 -1075z m947 158 c190 -116 278 -175 284 -191
5 -13 9 -183 9 -378 l0 -354 -80 0 -79 0 -3 315 c-3 299 -4 315 -23 334 -28
28 -653 321 -683 321 -14 0 -34 -7 -44 -17 -17 -15 -18 -48 -18 -640 l0 -623
-80 0 -80 0 0 700 0 700 261 0 261 0 275 -167z m-247 -262 l225 -107 3 -432 2
-432 -235 0 -235 0 0 540 c0 297 3 540 8 539 4 0 108 -49 232 -108z m-1940
-352 c146 -89 273 -168 283 -177 16 -14 17 -45 17 -384 l0 -368 -80 0 -80 0 0
313 c0 235 -3 317 -12 330 -17 23 -661 327 -692 327 -15 0 -33 -11 -45 -26
-21 -26 -21 -35 -21 -640 l0 -614 -80 0 -80 0 0 700 0 700 263 0 263 0 264
-161z m-228 -272 l217 -102 1 -277 0 -278 -126 0 c-125 0 -126 0 -155 -29
l-29 -29 0 -132 0 -131 -77 3 -78 3 -3 544 c-2 515 -1 543 15 537 10 -4 116
-53 235 -109z m2398 -967 l0 -470 -545 0 -545 0 0 470 0 470 545 0 545 0 0
-470z m-1250 -155 l0 -315 -545 0 -545 0 0 308 c0 170 3 312 7 315 3 4 249 7
545 7 l538 0 0 -315z m-1240 -160 l0 -155 -545 0 -545 0 0 155 0 155 545 0
545 0 0 -155z"/>
</g>
</svg>
